<svg width="61" height="31" viewBox="0 0 61 31" fill="none" xmlns="http://www.w3.org/2000/svg">
<path d="M55.1884 0.907058L17.6465 8.44299L22.1326 30.4334L59.6745 22.8975L55.1884 0.907058Z" fill="#EEE8E0" stroke="#14140B" stroke-width="0.761255"/>
<path d="M53.9074 7.47648L19.0212 14.4793L21.8427 28.3099L56.7289 21.307L53.9074 7.47648Z" fill="#EEE8E0" stroke="#14140B" stroke-width="0.761255"/>
<path d="M55.7031 3.42171L18.1611 10.9576L18.5118 12.6768L56.0538 5.14084L55.7031 3.42171Z" fill="#E392BE" stroke="#14140B" stroke-width="0.761255"/>
<path d="M37.147 13.5219L40.1455 12.9191L40.27 13.5417L39.1493 13.7689L39.7619 16.7779L39.0098 16.9261L38.3972 13.9172L37.2715 14.1444L37.147 13.5219Z" fill="#635F61"/>
<path d="M40.6038 16.61L41.1268 12.7265L42.103 12.5289L44.1103 15.9084L43.2934 16.0714L41.7992 13.4429H41.7693L41.4156 16.4469L40.6038 16.61ZM43.0394 14.6336L43.1589 15.2216L41.2064 15.6119L41.0869 15.024L43.0394 14.6336Z" fill="#635F61"/>
<path d="M43.6819 12.2126L44.439 12.0595L44.7677 13.6702L44.8175 13.6603L45.8187 11.7828L46.7352 11.6L45.6991 13.5022L47.4923 15.2315L46.5808 15.4143L45.2608 14.1148L44.9719 14.6534L45.1811 15.691L44.424 15.8441L43.6819 12.2126Z" fill="#635F61"/>
<path d="M47.009 11.5406L49.4646 11.0466L49.5891 11.6691L47.8906 12.01L48.0699 12.8944L49.6389 12.5782L49.7634 13.1958L48.1944 13.512L48.3737 14.3964L50.0772 14.0555L50.2017 14.6781L47.7412 15.1721L46.999 11.5406H47.009Z" fill="#635F61"/>
<path d="M35.6626 19.0062L38.6611 18.4034L38.7856 19.026L37.6649 19.2533L38.2776 22.2622L37.5254 22.4154L36.9128 19.4064L35.7871 19.6337L35.6626 19.0112V19.0062Z" fill="#635F61"/>
<path d="M40.539 21.8126L39.7819 21.9657L39.0398 18.3343L39.7969 18.1811L40.539 21.8126Z" fill="#635F61"/>
<path d="M42.8052 18.5319C42.7155 18.4479 42.6059 18.3935 42.4814 18.3639C42.3569 18.3343 42.2274 18.3343 42.0829 18.3639C41.8887 18.4034 41.7343 18.4825 41.6098 18.606C41.4852 18.7295 41.4055 18.8876 41.3607 19.0853C41.3159 19.2829 41.3209 19.5052 41.3757 19.7572C41.4304 20.0141 41.5101 20.2216 41.6297 20.3847C41.7442 20.5477 41.8837 20.6614 42.0431 20.7256C42.2025 20.7898 42.3768 20.8047 42.5661 20.7651C42.7055 20.7355 42.8251 20.6861 42.9297 20.612C43.0343 20.5379 43.109 20.4489 43.1638 20.3452C43.2186 20.2414 43.2435 20.1179 43.2435 19.9845L44.0155 19.8363C44.0305 20.0685 43.9906 20.3007 43.896 20.523C43.8013 20.7454 43.6519 20.9381 43.4477 21.1011C43.2435 21.2642 42.9895 21.3778 42.6906 21.4371C42.3619 21.5013 42.0531 21.4865 41.7642 21.3926C41.4753 21.2938 41.2312 21.1209 41.027 20.8689C40.8228 20.6169 40.6833 20.2958 40.6036 19.9153C40.5239 19.5299 40.5289 19.1791 40.6186 18.8679C40.7082 18.5566 40.8676 18.2997 41.0967 18.102C41.3258 17.9044 41.5998 17.771 41.9235 17.7068C42.2075 17.6524 42.4714 17.6524 42.7205 17.7068C42.9695 17.7661 43.1837 17.8797 43.368 18.0477C43.5523 18.2157 43.6868 18.438 43.7814 18.7048L43.0094 18.858C42.9596 18.7295 42.8898 18.6208 42.8002 18.5368L42.8052 18.5319Z" fill="#635F61"/>
<path d="M43.9558 17.3461L44.7129 17.1929L45.0416 18.8036L45.0914 18.7937L46.0926 16.9162L47.0091 16.7334L45.9731 18.6356L47.7662 20.3649L46.8547 20.5477L45.5347 19.2483L45.2459 19.7868L45.4551 20.8244L44.698 20.9775L43.9558 17.3461Z" fill="#635F61"/>
<path d="M47.2832 16.6742L49.7387 16.1801L49.8632 16.8027L48.1648 17.1436L48.3441 18.028L49.9131 17.7118L50.0376 18.3294L48.4686 18.6456L48.6479 19.53L50.3514 19.1891L50.4759 19.8116L48.0153 20.3057L47.2732 16.6742H47.2832Z" fill="#635F61"/>
<path d="M50.0823 16.1158L53.0808 15.5131L53.2053 16.1356L52.0846 16.3629L52.6972 19.3718L51.9451 19.525L51.3325 16.516L50.2068 16.7433L50.0823 16.1208V16.1158Z" fill="#635F61"/>
<path d="M11.4682 3.15333L1.20508 9.48029L13.144 28.5362L23.407 22.2093L11.4682 3.15333Z" fill="#EEE8E0" stroke="#14140B" stroke-width="0.761255"/>
<path d="M14.8887 8.6676L6.80005 13.6541L14.3088 25.639L22.3975 20.6526L14.8887 8.6676Z" fill="#EEE8E0" stroke="#14140B" stroke-width="0.761255"/>
<path d="M12.8273 5.32936L2.56421 11.6563L3.49755 13.146L13.7606 6.81909L12.8273 5.32936Z" fill="#E392BE" stroke="#14140B" stroke-width="0.761255"/>
</svg>
