<svg width="50" height="48" viewBox="0 0 50 48" fill="none" xmlns="http://www.w3.org/2000/svg">
<path d="M38.5492 13.6969C38.5492 13.6969 41.801 10.0232 43.6591 10.0439L43.6075 11.1068C43.6075 11.1068 45.032 9.68267 49.0786 9.97162C49.0786 9.97162 47.3547 12.9436 45.1559 14.1819L46.1985 14.6669C46.1985 14.6669 43.7004 17.4532 42.0487 17.6596C40.397 17.8659 34.5027 18.9082 34.5027 18.9082L38.5492 13.7072V13.6969Z" fill="#B85DA0" stroke="#14140B" stroke-width="0.59"/>
<path d="M32.7477 35.4295C32.7477 35.4295 34.1825 39.1445 36.8459 38.8659C39.5092 38.5873 41.615 37.2973 41.615 37.2973C41.615 37.2973 43.7312 34.4698 43.7932 33.4172C43.8448 32.375 45.9816 29.1863 45.7648 28.1956C45.5481 27.205 44.4229 25.2546 44.6706 24.3568C44.9184 23.4591 45.1558 21.6532 44.4642 20.4974C44.4642 20.4974 44.4951 18.5367 43.1635 18.1239C43.1635 18.1239 41.8318 14.9765 39.7466 15.7711C37.6614 16.5657 34.2858 20.033 34.2858 20.033C34.2858 20.033 28.8869 24.4394 28.0507 26.2143L29.4547 31.89L32.7373 35.4192L32.7477 35.4295Z" fill="#EEE8E0" stroke="#14140B" stroke-width="0.59"/>
<path d="M12.5667 36.9671C12.5667 36.9671 10.1511 39.9803 13.2273 42.3125C13.2273 42.3125 13.1035 43.3548 15.0958 44.2319C15.0958 44.2319 16.4791 47.6683 20.0611 46.8014C20.0611 46.8014 20.7837 45.9965 22.3218 46.5022C23.8599 47.0078 27.411 46.6983 27.8446 44.9027C27.8446 44.9027 32.5621 44.4486 32.8305 40.6098C33.0989 36.771 32.7583 35.4295 32.7583 35.4295C32.7583 35.4295 30.1982 32.3543 30.4253 29.4236C30.6421 26.4929 28.082 26.2246 28.082 26.2246L18.1307 30.6C18.1307 30.6 12.8248 35.1612 12.577 36.9671H12.5667Z" fill="#EEE8E0" stroke="#14140B" stroke-width="0.59"/>
<path d="M8.97422 18.4335C8.97422 18.4335 3.49276 18.031 2.34692 19.9917C1.20108 21.9524 -0.140893 27.659 2.25402 29.4546C4.64893 31.2501 5.69154 30.115 6.42446 31.5184C7.15739 32.9219 6.83739 35.8319 9.3665 36.0177C11.8956 36.2034 12.2053 35.8732 12.5563 36.9567C12.5563 36.9567 17.79 33.1179 20.7114 32.5607C23.6327 32.0034 27.9684 28.7735 28.2471 26.6993L19.2249 21.23C19.2249 21.23 11.9266 17.2674 8.9639 18.4231L8.97422 18.4335Z" fill="#EEE8E0" stroke="#14140B" stroke-width="0.59"/>
<path d="M23.674 6.65912C23.674 6.65912 22.4146 1.87094 18.9048 1.92253C15.395 1.97413 14.1666 5.0493 14.1666 5.0493C14.1666 5.0493 13.3098 5.40014 12.0504 7.60849C12.0504 7.60849 10.2542 8.38245 10.1717 9.94067C10.1717 9.94067 7.97288 11.2409 7.33286 13.2429C7.33286 13.2429 6.56897 16.1839 8.96388 18.4335C8.96388 18.4335 16.2415 20.6212 22.7346 24.8006C29.2174 28.9902 28.5361 26.0389 28.5361 26.0389L27.5451 11.6331L23.674 6.64879V6.65912Z" fill="#EEE8E0" stroke="#14140B" stroke-width="0.59"/>
<path d="M31.509 23.6551C31.509 23.6551 37.4653 16.6482 39.8293 13.1603C42.1932 9.67233 42.9468 4.24434 40.3764 2.74803C37.7956 1.25172 36.2472 0.0959468 33.7491 0.838942L31.5503 1.11758C31.5503 1.11758 28.7941 -0.585138 26.6159 1.25171C24.4378 3.08856 23.0855 3.40848 23.6739 6.65908C24.2623 9.90969 27.5553 12.1283 26.8431 16.6792C26.1308 21.23 26.7605 23.6035 26.7605 23.6035L28.5257 26.0389L31.4987 23.6551H31.509Z" fill="#EEE8E0" stroke="#14140B" stroke-width="0.59"/>
<path d="M21.7125 24.46L16.582 27.4526C16.2414 27.7003 16.3033 28.2369 16.6956 28.402C19.1627 29.4133 24.7165 30.8374 24.7165 30.8374C25.0261 32.1273 25.8933 34.9032 25.8933 34.9032C27.5965 34.5627 30.4973 28.2782 30.4973 28.2782C31.5502 28.8664 34.3168 27.8035 34.3168 27.8035C34.9671 26.9676 34.9052 25.4713 34.9052 25.4713C34.3787 23.944 32.3967 22.3961 32.3967 22.3961C33.4703 19.8885 30.3837 15.864 30.3837 15.864C29.4443 15.864 26.6572 21.1165 26.6572 21.1165L25.4597 19.5996C22.208 16.2871 19.4415 16.4728 19.4415 16.4728C18.8737 18.7431 19.2969 22.716 19.2969 22.716L21.7125 24.491V24.46Z" fill="#E392BE" stroke="#14140B" stroke-width="0.59"/>
<path d="M29.7542 24.4909C29.7542 24.4909 29.7233 23.5002 29.0213 23.3145C29.0213 23.3145 28.4536 22.4374 27.5761 22.9533C27.5761 22.9533 26.1619 22.4064 25.8006 23.1597C25.8006 23.1597 24.7063 22.8708 24.2831 23.6963C24.2831 23.6963 23.1992 23.5415 23.1785 24.2123C23.1785 24.2123 22.2908 23.944 22.1153 24.5838C22.1153 24.5838 21.6198 23.8821 20.9798 24.2742C20.9798 24.2742 19.8236 24.5632 20.3088 25.4609C20.3088 25.4609 19.7513 26.0491 20.7423 26.6889L21.0623 26.7612C21.0623 26.7612 20.4946 27.5867 21.7127 27.7931C21.7127 27.7931 22.1876 28.7631 23.3127 28.2265C23.3127 28.2265 24.2934 28.7631 24.8405 27.855C24.8405 27.855 25.7902 28.0821 26.2341 27.5145C26.2341 27.5145 26.9877 27.8137 27.4522 27.1533C27.4522 27.1533 28.2884 27.3907 28.4535 26.8231C28.4535 26.8231 29.2897 26.7199 29.3826 26.1627C29.3826 26.1627 29.9813 25.5022 29.7542 24.4909Z" fill="#B85DA0" stroke="#14140B" stroke-width="0.59"/>
<path d="M37.2383 7.09247C37.2383 7.09247 35.1634 15.0384 34.6576 15.6576Z" fill="#EEE8E0"/>
<path d="M37.2383 7.09247C37.2383 7.09247 35.1634 15.0384 34.6576 15.6576" stroke="#14140B" stroke-width="0.59"/>
<path d="M20.6392 35.285L16.6752 38.8246" stroke="#14140B" stroke-width="0.59"/>
<path d="M26.6365 20.26L26.7397 22.1381" stroke="#14140B" stroke-width="0.59"/>
<path d="M32.397 22.3755L30.5388 23.9028" stroke="#14140B" stroke-width="0.59"/>
<path d="M25.3669 30.2802L26.5127 28.3814" stroke="#14140B" stroke-width="0.59"/>
<path d="M30.4976 28.2575L29.2588 26.6683" stroke="#14140B" stroke-width="0.59"/>
<path d="M19.5655 5.13177L22.8379 10.0025" stroke="#14140B" stroke-width="0.59"/>
<path d="M36.1337 35.285C36.1337 35.285 38.0537 36.3376 39.437 36.3376Z" fill="#7D777A"/>
<path d="M36.1337 35.285C36.1337 35.285 38.0537 36.3376 39.437 36.3376" stroke="#14140B" stroke-width="0.59"/>
</svg>
