<svg width="76" height="24" viewBox="0 0 76 24" fill="none" xmlns="http://www.w3.org/2000/svg">
<path d="M8.51348 6.17714H2.93018V2.08936H19.7744V6.17714H14.2406V20.9126H8.51188V6.17714H8.51348Z" fill="#EEE9E0" stroke="#713570" stroke-width="0.213305" stroke-miterlimit="10"/>
<path d="M22.1136 17.2514L20.9839 20.9126H15.4102L21.5815 2.08936H28.9897L35.4055 20.9126H29.4307L28.245 17.2514H22.1168H22.1136ZM27.2383 13.1637C26.3211 10.2064 25.57 7.57722 25.1274 5.74126H25.0491C24.5969 7.76975 23.8506 10.4559 23.058 13.1637H27.2367H27.2383Z" fill="#EEE9E0" stroke="#713570" stroke-width="0.213305" stroke-miterlimit="10"/>
<path d="M35.1851 2.08936H40.8674V9.73201C42.1442 8.01465 45.0285 4.56914 46.9557 2.08936H53.7327L46.5578 9.80132L53.9772 20.911H47.2721L42.5948 13.3623L40.8674 15.0782V20.911H35.1851V2.08936Z" fill="#EEE9E0" stroke="#713570" stroke-width="0.213305" stroke-miterlimit="10"/>
<path d="M67.7913 13.2961H58.8954V16.8263H68.8236L68.1844 20.9141H53.3872V2.08936H68.1668V6.17714H58.8938V9.20679H67.7897V13.2946L67.7913 13.2961Z" fill="#EEE9E0" stroke="#713570" stroke-width="0.213305" stroke-miterlimit="10"/>
<path d="M7.79411 7.26302H2.2124V3.17523H19.0582V7.26302H13.5244V21.9985H7.7957V7.26302H7.79411Z" stroke="#713570" stroke-width="2.83483" stroke-linecap="round" stroke-linejoin="round"/>
<path d="M21.3964 18.3373L20.2666 21.9985H14.6929L20.8626 3.17523H28.2708L34.6867 21.9985H28.7103L27.5246 18.3373H21.3964ZM26.521 14.2495C25.6038 11.2923 24.8528 8.66309 24.4101 6.82713H24.3318C23.8796 8.85562 23.1333 11.5418 22.3407 14.2495H26.5194H26.521Z" stroke="#713570" stroke-width="2.83483" stroke-linecap="round" stroke-linejoin="round"/>
<path d="M34.4674 3.17523H40.1498V10.8179C41.4266 9.10052 44.3109 5.65501 46.2381 3.17523H53.015L45.8402 10.8872L53.2595 21.9969H46.5529L41.8756 14.4482L40.1482 16.164V21.9969H34.4658V3.17523H34.4674Z" stroke="#713570" stroke-width="2.83483" stroke-linecap="round" stroke-linejoin="round"/>
<path d="M67.0744 14.382H58.1785V17.9122H68.1083L67.4707 22H52.6719V3.17523H67.4515V7.26302H58.1785V10.2927H67.0744V14.3805V14.382Z" stroke="#713570" stroke-width="2.83483" stroke-linecap="round" stroke-linejoin="round"/>
<path d="M7.79411 7.26302H2.2124V3.17523H19.0582V7.26302H13.5244V21.9985H7.7957V7.26302H7.79411Z" fill="#EEE9E0"/>
<path d="M21.3964 18.3373L20.2666 21.9985H14.6929L20.8626 3.17523H28.2708L34.6867 21.9985H28.7103L27.5246 18.3373H21.3964ZM26.521 14.2495C25.6038 11.2923 24.8528 8.66309 24.4101 6.82713H24.3318C23.8796 8.85562 23.1333 11.5418 22.3407 14.2495H26.5194H26.521Z" fill="#EEE9E0"/>
<path d="M34.4674 3.17523H40.1498V10.8179C41.4266 9.10052 44.3109 5.65501 46.2381 3.17523H53.015L45.8402 10.8872L53.2595 21.9969H46.5529L41.8756 14.4482L40.1482 16.164V21.9969H34.4658V3.17523H34.4674Z" fill="#EEE9E0"/>
<path d="M67.0744 14.382H58.1785V17.9122H68.1083L67.4707 22H52.6719V3.17523H67.4515V7.26302H58.1785V10.2927H67.0744V14.3805V14.382Z" fill="#EEE9E0"/>
<path d="M7.79411 7.26302H2.2124V3.17523H19.0582V7.26302H13.5244V21.9985H7.7957V7.26302H7.79411Z" fill="#713570"/>
<path d="M21.3964 18.3373L20.2666 21.9985H14.6929L20.8626 3.17523H28.2708L34.6867 21.9985H28.7103L27.5246 18.3373H21.3964ZM26.521 14.2495C25.6038 11.2923 24.8528 8.66309 24.4101 6.82713H24.3318C23.8796 8.85562 23.1333 11.5418 22.3407 14.2495H26.5194H26.521Z" fill="#713570"/>
<path d="M34.4674 3.17523H40.1498V10.8179C41.4266 9.10052 44.3109 5.65501 46.2381 3.17523H53.015L45.8402 10.8872L53.2595 21.9969H46.5529L41.8756 14.4482L40.1482 16.164V21.9969H34.4658V3.17523H34.4674Z" fill="#713570"/>
<path d="M67.0744 14.382H58.1785V17.9122H68.1083L67.4707 22H52.6719V3.17523H67.4515V7.26302H58.1785V10.2927H67.0744V14.3805V14.382Z" fill="#713570"/>
<path d="M7.5833 6.08779H2V2H18.8458V6.08779H13.312V20.8232H7.5833V6.08779Z" stroke="#713570" stroke-width="2.83483" stroke-linecap="round" stroke-linejoin="round"/>
<path d="M21.1835 17.1621L20.0537 20.8232H14.48L20.6513 2H28.0595L34.4754 20.8232H28.499L27.3133 17.1621H21.1851H21.1835ZM26.3081 13.0743C25.3909 10.117 24.6399 9.08047 24.1972 7.24605H24.1189C23.6667 9.27454 22.9205 10.3666 22.1279 13.0743H26.3065H26.3081Z" stroke="#713570" stroke-width="2.83483" stroke-linecap="round" stroke-linejoin="round"/>
<path d="M34.255 2H39.9374V9.64265C41.2142 7.92529 44.0985 4.47978 46.0257 2H52.8026L45.6278 9.71196L53.0471 20.8217H46.3405L41.6632 13.273L39.9358 14.9888V20.8217H34.2534V2H34.255Z" stroke="#713570" stroke-width="2.83483" stroke-linecap="round" stroke-linejoin="round"/>
<path d="M66.8615 13.2068H57.9656V16.737H67.8954L67.2578 20.8248H52.459V2H67.2386V6.08779H57.9656V9.11743H66.8615V13.2052V13.2068Z" stroke="#713570" stroke-width="2.83483" stroke-linecap="round" stroke-linejoin="round"/>
<path d="M7.5833 6.08779H2V2H18.8458V6.08779H13.312V20.8232H7.5833V6.08779Z" fill="#EEE9E0"/>
<path d="M21.1835 17.1621L20.0537 20.8232H14.48L20.6513 2H28.0595L34.4754 20.8232H28.499L27.3133 17.1621H21.1851H21.1835ZM26.3081 13.0743C25.3909 10.117 24.6399 9.08047 24.1972 7.24605H24.1189C23.6667 9.27454 22.9205 10.3666 22.1279 13.0743H26.3065H26.3081Z" fill="#EEE9E0"/>
<path d="M34.255 2H39.9374V9.64265C41.2142 7.92529 44.0985 4.47978 46.0257 2H52.8026L45.6278 9.71196L53.0471 20.8217H46.3405L41.6632 13.273L39.9358 14.9888V20.8217H34.2534V2H34.255Z" fill="#EEE9E0"/>
<path d="M66.8615 13.2068H57.9656V16.737H67.8954L67.2578 20.8248H52.459V2H67.2386V6.08779H57.9656V9.11743H66.8615V13.2052V13.2068Z" fill="#EEE9E0"/>
<path d="M72.5038 9.04357C73.8824 9.04357 74.9999 7.96644 74.9999 6.63772C74.9999 5.30901 73.8824 4.23187 72.5038 4.23187C71.1253 4.23187 70.0078 5.30901 70.0078 6.63772C70.0078 7.96644 71.1253 9.04357 72.5038 9.04357Z" fill="#EEE9E0" stroke="#713570" stroke-width="1.33316"/>
<path d="M72.5038 19.8082C73.8824 19.8082 74.9999 18.7311 74.9999 17.4024C74.9999 16.0737 73.8824 14.9965 72.5038 14.9965C71.1253 14.9965 70.0078 16.0737 70.0078 17.4024C70.0078 18.7311 71.1253 19.8082 72.5038 19.8082Z" fill="#EEE9E0" stroke="#713570" stroke-width="1.33316"/>
<path d="M72.5038 8.49517C73.8824 8.49517 74.9999 7.41804 74.9999 6.08932C74.9999 4.76061 73.8824 3.68347 72.5038 3.68347C71.1253 3.68347 70.0078 4.76061 70.0078 6.08932C70.0078 7.41804 71.1253 8.49517 72.5038 8.49517Z" fill="#EEE9E0" stroke="#713570" stroke-width="1.33316"/>
<path d="M72.5038 19.2599C73.8824 19.2599 74.9999 18.1828 74.9999 16.8541C74.9999 15.5254 73.8824 14.4482 72.5038 14.4482C71.1253 14.4482 70.0078 15.5254 70.0078 16.8541C70.0078 18.1828 71.1253 19.2599 72.5038 19.2599Z" fill="#EEE9E0" stroke="#713570" stroke-width="1.33316"/>
</svg>
