<svg width="43" height="73" viewBox="0 0 43 73" fill="none" xmlns="http://www.w3.org/2000/svg">
<path d="M17.4289 9.74777L16.739 9.51315C16.2503 9.34695 15.7138 9.52291 15.4071 9.95307L14.976 10.5592C14.3723 11.4097 13.0692 11.1262 12.8584 10.0997L12.7147 9.36648C12.6093 8.84834 12.1877 8.46708 11.6798 8.40842L10.9516 8.33019C9.92635 8.22265 9.52392 6.92241 10.2905 6.22829L10.8366 5.72969C11.2199 5.37774 11.3445 4.82049 11.1337 4.33168L10.8366 3.64735C10.415 2.68927 11.3157 1.6823 12.2931 2.01469L12.9829 2.24932C13.4716 2.41551 14.0082 2.23956 14.3148 1.8094L14.746 1.20327C15.3496 0.35273 16.6528 0.636215 16.8636 1.66273L17.0073 2.39595C17.1127 2.9141 17.5343 3.29539 18.0421 3.35405L18.7703 3.43227C19.7956 3.53981 20.198 4.84006 19.4315 5.53418L18.8853 6.03275C18.5021 6.3847 18.3775 6.94197 18.5883 7.43079L18.8853 8.11511C19.3069 9.07319 18.4062 10.0802 17.4289 9.74777Z" fill="#EEE8E0" stroke="#14140B" stroke-width="0.71"/>
<path d="M24.902 9.73781L24.2122 9.50319C23.7235 9.33699 23.1869 9.51295 22.8803 9.94311L22.4491 10.5493C21.8455 11.3998 20.5423 11.1163 20.3315 10.0898L20.1878 9.35655C20.0824 8.83841 19.6608 8.45712 19.153 8.39846L18.4248 8.32026C17.3995 8.21272 16.9971 6.91245 17.7636 6.21833L18.3098 5.71976C18.693 5.36781 18.8176 4.81054 18.6068 4.32172L18.3098 3.63739C17.8882 2.67931 18.7889 1.67234 19.7662 2.00473L20.4561 2.23939C20.9448 2.40558 21.4813 2.2296 21.788 1.79944L22.2191 1.19331C22.8228 0.342771 24.1259 0.626286 24.3367 1.6528L24.4804 2.38603C24.5858 2.90417 25.0074 3.28543 25.5153 3.34409L26.2435 3.42231C27.2687 3.52985 27.6712 4.8301 26.9046 5.52422L26.3585 6.02282C25.9752 6.37477 25.8506 6.93201 26.0614 7.42083L26.3585 8.10518C26.7801 9.06326 25.8794 10.0702 24.902 9.73781Z" fill="#8E4694" stroke="#14140B" stroke-width="0.71"/>
<path d="M32.3664 9.73781L31.6765 9.50319C31.1878 9.33699 30.6513 9.51295 30.3446 9.94311L29.9135 10.5493C29.3098 11.3998 28.0067 11.1163 27.7959 10.0898L27.6522 9.35655C27.5468 8.83841 27.1252 8.45712 26.6173 8.39846L25.8891 8.32026C24.8639 8.21272 24.4614 6.91245 25.228 6.21833L25.7741 5.71976C26.1574 5.36781 26.282 4.81054 26.0712 4.32172L25.7741 3.63739C25.3525 2.67931 26.2532 1.67234 27.2306 2.00473L27.9204 2.23939C28.4091 2.40558 28.9457 2.2296 29.2523 1.79944L29.6835 1.19331C30.2872 0.342771 31.5903 0.626286 31.8011 1.6528L31.9448 2.38603C32.0502 2.90417 32.4718 3.28543 32.9796 3.34409L33.7078 3.42231C34.7331 3.52985 35.1355 4.8301 34.369 5.52422L33.8228 6.02282C33.4396 6.37477 33.315 6.93201 33.5258 7.42083L33.8228 8.10518C34.2444 9.06326 33.3437 10.0702 32.3664 9.73781Z" fill="#EEE8E0" stroke="#14140B" stroke-width="0.71"/>
<path d="M37.0617 16.19L36.3718 15.9554C35.8831 15.7892 35.3466 15.9652 35.04 16.3953L34.6088 17.0014C34.0051 17.852 32.702 17.5685 32.4912 16.542L32.3475 15.8087C32.2421 15.2906 31.8205 14.9093 31.3126 14.8507L30.5844 14.7724C29.5592 14.6649 29.1567 13.3647 29.9233 12.6705L30.4694 12.1719C30.8527 11.82 30.9773 11.2627 30.7665 10.7739L30.4694 10.0896C30.0478 9.13152 30.9485 8.12455 31.9259 8.45694L32.6158 8.69157C33.1044 8.85776 33.641 8.68181 33.9476 8.25165L34.3788 7.64552C34.9825 6.79498 36.2856 7.0785 36.4964 8.10501L36.6401 8.83823C36.7455 9.35638 37.1671 9.73764 37.6749 9.7963L38.4032 9.87452C39.4284 9.98206 39.8309 11.2823 39.0643 11.9764L38.5181 12.475C38.1349 12.827 38.0103 13.3842 38.2211 13.873L38.5181 14.5574C38.9397 15.5154 38.0391 16.5224 37.0617 16.19Z" fill="#8E4694" stroke="#14140B" stroke-width="0.71"/>
<path d="M8.6994 22.0266L8.00951 21.792C7.52084 21.6258 6.98426 21.8018 6.67765 22.2319L6.24647 22.8381C5.64282 23.6886 4.33969 23.4051 4.12889 22.3786L3.98517 21.6453C3.87977 21.1272 3.45817 20.7459 2.95033 20.6873L2.22211 20.6091C1.19686 20.5015 0.794432 19.2013 1.56097 18.5071L2.10714 18.0085C2.49041 17.6566 2.61497 17.0994 2.40417 16.6105L2.10714 15.9262C1.68554 14.9681 2.58622 13.9612 3.56357 14.2936L4.25346 14.5282C4.74213 14.6944 5.27871 14.5184 5.58532 14.0883L6.0165 13.4821C6.62015 12.6316 7.92328 12.9151 8.13408 13.9416L8.2778 14.6748C8.3832 15.193 8.8048 15.5742 9.31264 15.6329L10.0409 15.7111C11.0661 15.8187 11.4685 17.1189 10.702 17.813L10.1558 18.3116C9.77256 18.6636 9.648 19.2208 9.8588 19.7096L10.1558 20.394C10.5774 21.3521 9.67675 22.359 8.6994 22.0266Z" fill="#EEE8E0" stroke="#14140B" stroke-width="0.71"/>
<path d="M13.7014 16.2096L13.0115 15.975C12.5228 15.8088 11.9862 15.9848 11.6796 16.4149L11.2484 17.0211C10.6448 17.8716 9.34165 17.5881 9.13085 16.5616L8.98712 15.8284C8.88173 15.3102 8.46012 14.9289 7.95229 14.8703L7.22407 14.7921C6.19882 14.6845 5.79638 13.3843 6.56293 12.6902L7.10909 12.1916C7.49236 11.8396 7.61693 11.2824 7.40613 10.7936L7.10909 10.1092C6.68749 9.15112 7.58818 8.14414 8.56552 8.47654L9.25541 8.71119C9.74408 8.87739 10.2807 8.7014 10.5873 8.27124L11.0185 7.66511C11.6221 6.81457 12.9252 7.09809 13.136 8.1246L13.2798 8.85783C13.3852 9.37597 13.8068 9.75726 14.3146 9.81592L15.0428 9.89412C16.0681 10.0017 16.4705 11.3019 15.704 11.996L15.1578 12.4946C14.7745 12.8466 14.65 13.4038 14.8608 13.8926L15.1578 14.577C15.5794 15.5351 14.6787 16.542 13.7014 16.2096Z" fill="#E392BE" stroke="#14140B" stroke-width="0.71"/>
<path d="M16.4797 22.0167L15.7898 21.7821C15.3011 21.6159 14.7645 21.7918 14.4579 22.222L14.0267 22.8281C13.4231 23.6787 12.12 23.3952 11.9092 22.3686L11.7654 21.6354C11.66 21.1173 11.2384 20.736 10.7306 20.6773L10.0024 20.5991C8.97714 20.4916 8.5747 19.1913 9.34125 18.4972L9.88741 17.9986C10.2707 17.6467 10.3952 17.0894 10.1844 16.6006L9.88741 15.9163C9.46581 14.9582 10.3665 13.9512 11.3438 14.2836L12.0337 14.5183C12.5224 14.6845 13.059 14.5085 13.3656 14.0783L13.7968 13.4722C14.4004 12.6216 15.7036 12.9052 15.9144 13.9317L16.0581 14.6649C16.1635 15.183 16.5851 15.5643 17.0929 15.623L17.8211 15.7012C18.8464 15.8087 19.2488 17.109 18.4823 17.8031L17.9361 18.3017C17.5528 18.6536 17.4283 19.2109 17.6391 19.6997L17.9361 20.3841C18.3577 21.3421 17.457 22.3491 16.4797 22.0167Z" fill="#EEE8E0" stroke="#14140B" stroke-width="0.71"/>
<path d="M21.4816 16.1998L20.7917 15.9651C20.3031 15.7989 19.7665 15.9749 19.4599 16.4051L19.0287 17.0112C18.425 17.8617 17.1219 17.5782 16.9111 16.5517L16.7674 15.8185C16.662 15.3003 16.2404 14.919 15.7326 14.8604L15.0043 14.7822C13.9791 14.6746 13.5767 13.3744 14.3432 12.6803L14.8894 12.1817C15.2726 11.8297 15.3972 11.2725 15.1864 10.7837L14.8894 10.0993C14.4678 9.14123 15.3685 8.13428 16.3458 8.46668L17.0357 8.7013C17.5244 8.8675 18.0609 8.69151 18.3675 8.26135L18.7987 7.65523C19.4024 6.80469 20.7055 7.0882 20.9163 8.11471L21.06 8.84794C21.1654 9.36608 21.587 9.74737 22.0949 9.80603L22.8231 9.88423C23.8483 9.99177 24.2508 11.292 23.4842 11.9862L22.9381 12.4847C22.5548 12.8367 22.4302 13.3939 22.641 13.8827L22.9381 14.5671C23.3597 15.5252 22.459 16.5322 21.4816 16.1998Z" fill="#EEE8E0" stroke="#14140B" stroke-width="0.71"/>
<path d="M24.2697 22.0167L23.5798 21.7821C23.0912 21.6159 22.5546 21.7918 22.248 22.222L21.8168 22.8281C21.2131 23.6787 19.91 23.3952 19.6992 22.3686L19.5555 21.6354C19.4501 21.1173 19.0285 20.736 18.5206 20.6773L17.7924 20.5991C16.7672 20.4916 16.3647 19.1913 17.1313 18.4972L17.6774 17.9986C18.0607 17.6467 18.1853 17.0894 17.9745 16.6006L17.6774 15.9163C17.2559 14.9582 18.1565 13.9512 19.1339 14.2836L19.8238 14.5183C20.3124 14.6845 20.849 14.5085 21.1556 14.0783L21.5868 13.4722C22.1905 12.6216 23.4936 12.9052 23.7044 13.9317L23.8481 14.6649C23.9535 15.183 24.3751 15.5643 24.883 15.623L25.6112 15.7012C26.6364 15.8087 27.0389 17.109 26.2723 17.8031L25.7261 18.3017C25.3429 18.6536 25.2183 19.2109 25.4291 19.6997L25.7261 20.3841C26.1477 21.3421 25.2471 22.3491 24.2697 22.0167Z" fill="#EEE8E0" stroke="#14140B" stroke-width="0.71"/>
<path d="M29.2717 16.19L28.5818 15.9554C28.0931 15.7892 27.5565 15.9652 27.2499 16.3953L26.8187 17.0014C26.2151 17.852 24.912 17.5685 24.7012 16.542L24.5574 15.8087C24.452 15.2906 24.0304 14.9093 23.5226 14.8507L22.7944 14.7724C21.7691 14.6649 21.3667 13.3647 22.1332 12.6705L22.6794 12.1719C23.0627 11.82 23.1872 11.2627 22.9764 10.7739L22.6794 10.0896C22.2578 9.13152 23.1585 8.12455 24.1358 8.45694L24.8257 8.69157C25.3144 8.85776 25.851 8.68181 26.1576 8.25165L26.5888 7.64552C27.1924 6.79498 28.4955 7.0785 28.7063 8.10501L28.8501 8.83823C28.9555 9.35638 29.3771 9.73764 29.8849 9.7963L30.6131 9.87452C31.6384 9.98206 32.0408 11.2823 31.2743 11.9764L30.7281 12.475C30.3448 12.827 30.2203 13.3842 30.4311 13.873L30.7281 14.5574C31.1497 15.5154 30.249 16.5224 29.2717 16.19Z" fill="#EEE8E0" stroke="#14140B" stroke-width="0.71"/>
<path d="M32.0598 22.0068L31.3699 21.7722C30.8812 21.606 30.3446 21.782 30.038 22.2121L29.6068 22.8182C29.0032 23.6688 27.7 23.3853 27.4892 22.3588L27.3455 21.6255C27.2401 21.1074 26.8185 20.7261 26.3107 20.6674L25.5825 20.5892C24.5572 20.4817 24.1548 19.1815 24.9213 18.4873L25.4675 17.9887C25.8508 17.6368 25.9753 17.0795 25.7645 16.5907L25.4675 15.9064C25.0459 14.9483 25.9466 13.9414 26.9239 14.2737L27.6138 14.5084C28.1025 14.6746 28.6391 14.4986 28.9457 14.0684L29.3769 13.4623C29.9805 12.6118 31.2836 12.8953 31.4944 13.9218L31.6382 14.655C31.7436 15.1732 32.1652 15.5544 32.673 15.6131L33.4012 15.6913C34.4265 15.7988 34.8289 17.0991 34.0624 17.7932L33.5162 18.2918C33.1329 18.6438 33.0084 19.201 33.2191 19.6898L33.5162 20.3742C33.9378 21.3322 33.0371 22.3392 32.0598 22.0068Z" fill="#E392BE" stroke="#14140B" stroke-width="0.71"/>
<path d="M39.9836 21.9973L39.2937 21.7627C38.805 21.5965 38.2684 21.7725 37.9618 22.2026L37.5306 22.8088C36.927 23.6593 35.6239 23.3758 35.4131 22.3493L35.2694 21.616C35.164 21.0979 34.7424 20.7166 34.2345 20.658L33.5063 20.5798C32.481 20.4722 32.0786 19.172 32.8452 18.4779L33.3913 17.9792C33.7746 17.6273 33.8992 17.0701 33.6884 16.5812L33.3913 15.8969C32.9697 14.9388 33.8704 13.9319 34.8478 14.2643L35.5376 14.4989C36.0263 14.6651 36.5629 14.4891 36.8695 14.059L37.3007 13.4528C37.9043 12.6023 39.2075 12.8858 39.4183 13.9123L39.562 14.6455C39.6674 15.1637 40.089 15.5449 40.5968 15.6036L41.325 15.6818C42.3503 15.7894 42.7527 17.0896 41.9862 17.7837L41.44 18.2823C41.0567 18.6343 40.9322 19.1915 41.143 19.6803L41.44 20.3647C41.8616 21.3228 40.9609 22.3297 39.9836 21.9973Z" fill="#EEE8E0" stroke="#14140B" stroke-width="0.71"/>
<path d="M36.7839 72.4625L6.89829 72.4919L1.72412 20.5893L42.0826 20.5502L36.7839 72.4625Z" fill="#B85DA0" stroke="#14140B" stroke-width="0.71"/>
<path d="M33.5928 21.0101L29.8271 72.6486" stroke="#14140B" stroke-width="0.71"/>
<path d="M16.4129 38.2747C21.8159 38.2747 26.1959 35.8849 26.1959 32.9369C26.1959 29.9888 21.8159 27.599 16.4129 27.599C11.0099 27.599 6.62988 29.9888 6.62988 32.9369C6.62988 35.8849 11.0099 38.2747 16.4129 38.2747Z" fill="#EEE8E0" stroke="#14140B" stroke-width="0.71"/>
<path d="M10.9414 31.1382L12.5032 31.1088C12.8003 31.1088 13.059 31.1577 13.2794 31.2653C13.4997 31.3728 13.6626 31.539 13.7776 31.7443C13.8926 31.9496 13.9501 32.1842 13.9597 32.4579C13.9597 32.7317 13.9118 32.9663 13.8064 33.1814C13.701 33.3867 13.5381 33.5529 13.3177 33.6702C13.0973 33.7875 12.8386 33.856 12.5416 33.856L11.5355 33.8755V33.1912L12.3978 33.1716C12.5607 33.1716 12.6949 33.1325 12.8003 33.0738C12.9057 33.0152 12.9919 32.9272 13.0398 32.8294C13.0877 32.7219 13.1165 32.6046 13.1165 32.4677C13.1165 32.3309 13.0877 32.2038 13.0302 32.106C12.9727 32.0082 12.8961 31.93 12.7811 31.8714C12.6661 31.8225 12.532 31.7932 12.3691 31.7932H11.7846L11.8517 35.1855L11.0276 35.2051L10.9414 31.1284V31.1382Z" fill="#B85DA0"/>
<path d="M17.6008 34.169C17.4475 34.4916 17.2271 34.736 16.9492 34.9022C16.6714 35.0782 16.3552 35.1662 15.9911 35.176C15.6365 35.176 15.3108 35.1076 15.0233 34.9511C14.7358 34.7947 14.5155 34.5503 14.343 34.2374C14.1801 33.9246 14.0843 33.5531 14.0747 33.123C14.0747 32.6928 14.1418 32.3115 14.2951 31.9889C14.4484 31.6663 14.6688 31.4219 14.9466 31.2557C15.2245 31.0895 15.5407 30.9917 15.9048 30.9917C16.2689 30.9917 16.5851 31.0601 16.8726 31.2166C17.16 31.373 17.3804 31.6076 17.5529 31.9205C17.7158 32.2333 17.8116 32.6048 17.8212 33.0447C17.8212 33.4749 17.7541 33.8562 17.6008 34.169ZM16.8438 32.3311C16.7576 32.1356 16.633 31.9791 16.4797 31.8813C16.3264 31.7836 16.1444 31.7347 15.9336 31.7347C15.7324 31.7347 15.5503 31.7934 15.397 31.9009C15.2437 32.0085 15.1287 32.1649 15.052 32.3702C14.9658 32.5755 14.9371 32.8199 14.9371 33.1034C14.9371 33.3869 14.9946 33.6313 15.0808 33.8269C15.167 34.0224 15.2916 34.1788 15.4449 34.2766C15.5982 34.3743 15.7803 34.433 15.9911 34.4232C16.2019 34.4232 16.3839 34.3548 16.5276 34.2472C16.6714 34.1397 16.7959 33.9833 16.8726 33.778C16.9492 33.5727 16.9876 33.3282 16.9876 33.0447C16.9876 32.7612 16.9301 32.5168 16.8438 32.3115V32.3311Z" fill="#B85DA0"/>
<path d="M18.041 30.9912L19.6028 30.9619C19.8999 30.9619 20.1586 31.0108 20.379 31.1183C20.5994 31.2259 20.7622 31.3921 20.8772 31.5974C20.9922 31.8027 21.0593 32.0373 21.0593 32.3111C21.0593 32.5848 21.0114 32.8194 20.906 33.0345C20.8006 33.2398 20.6377 33.406 20.4173 33.5233C20.1969 33.6407 19.9382 33.7091 19.6412 33.7091L18.6351 33.7286V33.0443L19.4974 33.0247C19.6603 33.0247 19.7945 32.9856 19.8999 32.927C20.0053 32.8683 20.0915 32.7803 20.1394 32.6826C20.1873 32.575 20.2161 32.4577 20.2161 32.3208C20.2161 32.184 20.1873 32.0569 20.1298 31.9591C20.0724 31.8614 19.9861 31.7831 19.8807 31.7245C19.7657 31.6756 19.6316 31.6463 19.4687 31.6463H18.8842L18.9513 35.0387L18.1272 35.0582L18.041 30.9815V30.9912Z" fill="#B85DA0"/>
<path d="M22.1617 33.7675L21.4623 33.7871L21.3281 30.9324L22.1809 30.9128L22.1617 33.7773V33.7675ZM21.606 34.9896C21.5389 34.9505 21.4719 34.8918 21.4335 34.8234C21.3856 34.7549 21.3665 34.667 21.3665 34.5888C21.3665 34.5008 21.3856 34.4225 21.4239 34.3541C21.4623 34.2857 21.5198 34.227 21.5868 34.1781C21.6539 34.1293 21.7306 34.1097 21.8168 34.1097C21.8935 34.1097 21.9701 34.1292 22.0468 34.1683C22.1138 34.2075 22.1809 34.2661 22.2192 34.3346C22.2576 34.403 22.2863 34.4812 22.2863 34.5692C22.2863 34.6572 22.2671 34.7354 22.2288 34.8136C22.1905 34.8918 22.133 34.9505 22.0659 34.9896C21.9988 35.0287 21.9222 35.058 21.836 35.058C21.7497 35.058 21.6731 35.0384 21.606 34.9993V34.9896Z" fill="#B85DA0"/>
</svg>
