<svg width="41" height="46" viewBox="0 0 41 46" fill="none" xmlns="http://www.w3.org/2000/svg">
<path d="M23.938 32.9105L14.7626 23.7624C14.6537 23.6535 14.5764 23.5355 14.5307 23.4085C14.4849 23.2814 14.4624 23.1453 14.4632 23.0001C14.4632 22.8549 14.486 22.7187 14.5318 22.5917C14.5775 22.4646 14.6545 22.3466 14.7626 22.2377L23.938 13.0624C24.1921 12.8083 24.5097 12.6812 24.8909 12.6812C25.2721 12.6812 25.5988 12.8173 25.8711 13.0896C26.1433 13.3619 26.2795 13.6795 26.2795 14.0425C26.2795 14.4056 26.1433 14.7232 25.8711 14.9955L17.8665 23.0001L25.8711 31.0047C26.1252 31.2588 26.2522 31.5721 26.2522 31.9445C26.2522 32.317 26.1161 32.639 25.8438 32.9105C25.5716 33.1828 25.2539 33.3189 24.8909 33.3189C24.5279 33.3189 24.2102 33.1828 23.938 32.9105Z" fill="#64446D"/>
</svg>
