<svg width="53" height="68" viewBox="0 0 53 68" fill="none" xmlns="http://www.w3.org/2000/svg">
<path d="M52.4695 5.60615L16.3381 0.466309L10.0827 44.8416L46.214 49.9814L52.4695 5.60615Z" fill="#A9619C" stroke="#020202" stroke-width="0.7"/>
<path d="M50.2591 7.29785L17.9478 2.70142L12.2317 43.2508L44.5431 47.8472L50.2591 7.29785Z" fill="#EEE9E0" stroke="#020202" stroke-width="0.7"/>
<path d="M45.9359 18.3718L19.0605 14.5493" stroke="#020202" stroke-width="0.380419"/>
<path d="M45.5592 21.0449L18.6838 17.2224" stroke="#020202" stroke-width="0.380419"/>
<path d="M45.1825 23.7179L18.3071 19.8954" stroke="#020202" stroke-width="0.380419"/>
<path d="M44.8051 26.3909L17.9297 22.5684" stroke="#020202" stroke-width="0.380419"/>
<path d="M44.4286 29.0662L17.5532 25.2414" stroke="#020202" stroke-width="0.380419"/>
<path d="M44.0519 31.7393L17.1765 27.9167" stroke="#020202" stroke-width="0.380419"/>
<path d="M43.6747 34.4121L16.7993 30.5896" stroke="#020202" stroke-width="0.380419"/>
<path d="M43.2982 37.0853L16.4229 33.2628" stroke="#020202" stroke-width="0.380419"/>
<path d="M42.9211 39.7584L16.0457 35.9359" stroke="#020202" stroke-width="0.380419"/>
<path d="M35.9566 9.41563C36.0646 8.64927 35.5338 7.93832 34.7686 7.82983C34.3435 7.76981 33.9345 7.90831 33.6381 8.17607C33.4267 7.83675 33.0751 7.58746 32.6477 7.52744C31.8848 7.41895 31.1771 7.95217 31.0691 8.72083C31.0231 9.04169 31.0921 9.35331 31.2414 9.61414C31.0254 9.8242 30.8738 10.1035 30.8301 10.4244C30.7221 11.1907 31.2529 11.9017 32.0181 12.0102C32.4432 12.0702 32.8522 11.9317 33.1486 11.6639C33.36 12.0032 33.7116 12.2525 34.139 12.3125C34.9019 12.421 35.6096 11.8878 35.7176 11.1192C35.7635 10.7983 35.6946 10.4867 35.5453 10.2258C35.7613 10.0158 35.9129 9.73648 35.9566 9.41563Z" fill="#D695B9" stroke="#020202" stroke-width="0.380419"/>
<path d="M32.7422 9.1803L33.0731 9.62349" stroke="#020202" stroke-width="0.380419"/>
<path d="M34.0928 9.37183L33.6516 9.70653" stroke="#020202" stroke-width="0.380419"/>
<path d="M32.5444 10.4983L32.9856 10.1636" stroke="#020202" stroke-width="0.380419"/>
<path d="M33.8953 10.6899L33.5645 10.2467" stroke="black" stroke-width="0.380419"/>
<path d="M36.1912 37.1946L1.20508 42.1777L4.69083 66.8742L39.6769 61.8911L36.1912 37.1946Z" fill="#EEE9E0" stroke="#020202" stroke-width="0.7"/>
<path d="M1.2063 42.1751L20.7792 54.0282" stroke="#020202" stroke-width="0.7"/>
<path d="M36.2988 37.1754L20.7793 54.0283" stroke="#020202" stroke-width="0.7"/>
<path d="M23.7093 51.9184C23.5599 50.8566 22.581 50.118 21.524 50.268C20.9358 50.3511 20.4463 50.695 20.1545 51.1659C19.7432 50.7943 19.1802 50.6027 18.5897 50.6858C17.5327 50.8359 16.7974 51.8192 16.9468 52.881C17.0088 53.3265 17.2179 53.712 17.5166 54.0028C17.3098 54.3652 17.2156 54.7946 17.2799 55.2401C17.4293 56.3019 18.4082 57.0406 19.4652 56.8905C20.0534 56.8074 20.5429 56.4635 20.8347 55.9926C21.246 56.3642 21.809 56.5558 22.3995 56.4727C23.4565 56.3227 24.1918 55.3393 24.0425 54.2775C23.9804 53.832 23.7713 53.4465 23.4726 53.1557C23.6794 52.7933 23.7736 52.3639 23.7093 51.9184Z" fill="#D695B9" stroke="black" stroke-width="0.380419"/>
<path d="M19.3457 52.8464L19.9569 53.3081" stroke="#020202" stroke-width="0.380419"/>
<path d="M21.2184 52.5787L20.7588 53.1927" stroke="#020202" stroke-width="0.380419"/>
<path d="M19.5891 54.6723L20.0464 54.0583" stroke="#020202" stroke-width="0.380419"/>
<path d="M21.4596 54.4068L20.8484 53.9451" stroke="#020202" stroke-width="0.380419"/>
</svg>
